<?xml version="1.0" standalone="no"?>
<!DOCTYPE svg PUBLIC "-//W3C//DTD SVG 20010904//EN"
 "http://www.w3.org/TR/2001/REC-SVG-20010904/DTD/svg10.dtd">
<svg version="1.0" xmlns="http://www.w3.org/2000/svg"
 width="1024.000000pt" height="1024.000000pt" viewBox="0 0 1024.000000 1024.000000"
 preserveAspectRatio="xMidYMid meet">
<metadata>
Created by potrace 1.11, written by Peter Selinger 2001-2013
</metadata>
<g transform="translate(0.000000,1024.000000) scale(0.100000,-0.100000)"
fill="#000000" stroke="none">
<path d="M0 5120 l0 -5120 5120 0 5120 0 0 5120 0 5120 -5120 0 -5120 0 0
-5120z m8025 2460 c151 -39 268 -113 351 -223 93 -123 135 -246 135 -397 0
-112 -18 -187 -68 -290 -35 -73 -82 -121 -1962 -2001 -1889 -1889 -1927 -1927
-2001 -1962 -106 -51 -179 -68 -290 -68 -146 0 -277 43 -392 129 -29 22 -481
469 -1004 994 l-952 953 -41 85 c-126 258 -80 542 118 741 225 224 567 251
825 65 33 -25 371 -355 751 -735 l690 -691 1640 1638 c1075 1075 1660 1652
1697 1676 152 98 334 129 503 86z"/>
</g>
</svg>
